<svg xmlns="http://www.w3.org/2000/svg" xmlns:xlink="http://www.w3.org/1999/xlink" viewBox="0 0 900 500"><defs><style>.cls-1{fill:none;}.cls-2{isolation:isolate;}.cls-3{clip-path:url(#clip-path);}.cls-100,.cls-101,.cls-102,.cls-103,.cls-104,.cls-105,.cls-106,.cls-107,.cls-108,.cls-109,.cls-110,.cls-111,.cls-116,.cls-117,.cls-12,.cls-121,.cls-122,.cls-123,.cls-124,.cls-125,.cls-126,.cls-127,.cls-129,.cls-13,.cls-130,.cls-131,.cls-132,.cls-133,.cls-134,.cls-135,.cls-136,.cls-137,.cls-14,.cls-145,.cls-146,.cls-147,.cls-15,.cls-150,.cls-151,.cls-152,.cls-153,.cls-155,.cls-16,.cls-17,.cls-18,.cls-19,.cls-20,.cls-21,.cls-22,.cls-23,.cls-24,.cls-25,.cls-26,.cls-27,.cls-28,.cls-29,.cls-30,.cls-31,.cls-32,.cls-33,.cls-34,.cls-35,.cls-36,.cls-37,.cls-38,.cls-39,.cls-4,.cls-41,.cls-42,.cls-43,.cls-44,.cls-45,.cls-46,.cls-47,.cls-48,.cls-49,.cls-5,.cls-50,.cls-51,.cls-52,.cls-53,.cls-54,.cls-55,.cls-56,.cls-57,.cls-58,.cls-59,.cls-6,.cls-60,.cls-61,.cls-62,.cls-63,.cls-64,.cls-65,.cls-66,.cls-67,.cls-68,.cls-69,.cls-72,.cls-73,.cls-74,.cls-75,.cls-76,.cls-77,.cls-78,.cls-79,.cls-80,.cls-81,.cls-82,.cls-83,.cls-84,.cls-85,.cls-86,.cls-87,.cls-88,.cls-89,.cls-90,.cls-91,.cls-94,.cls-96,.cls-97,.cls-98,.cls-99{fill-rule:evenodd;}.cls-4{fill:url(#Безымянный_градиент_182);}.cls-5{fill:#400e86;}.cls-6{fill:#611d93;}.cls-132,.cls-134,.cls-144,.cls-148,.cls-154,.cls-35,.cls-57,.cls-6,.cls-74,.cls-97{opacity:0.5;}.cls-114,.cls-116,.cls-117,.cls-120,.cls-128,.cls-137,.cls-144,.cls-147,.cls-148,.cls-30,.cls-35,.cls-57,.cls-6,.cls-70,.cls-71,.cls-74,.cls-97{mix-blend-mode:multiply;}.cls-7{fill:url(#Безымянный_градиент_214);}.cls-11,.cls-12,.cls-8,.cls-9{opacity:0.2;}.cls-11,.cls-118,.cls-119,.cls-12,.cls-132,.cls-134,.cls-154,.cls-8,.cls-9{mix-blend-mode:screen;}.cls-8{fill:url(#Безымянный_градиент_218);}.cls-9{fill:url(#Безымянный_градиент_216);}.cls-10{fill:url(#Безымянный_градиент_214-2);}.cls-11{fill:url(#Безымянный_градиент_218-2);}.cls-12{fill:url(#Безымянный_градиент_216-2);}.cls-13{fill:url(#Безымянный_градиент_188);}.cls-14{fill:url(#Безымянный_градиент_37);}.cls-15{fill:#6829a4;}.cls-16{fill:url(#Безымянный_градиент_188-2);}.cls-17{fill:#4a0e72;}.cls-18{fill:url(#Безымянный_градиент_188-3);}.cls-19{fill:url(#Безымянный_градиент_182-2);}.cls-20{fill:#740e86;}.cls-21{fill:url(#Безымянный_градиент_325);}.cls-22{fill:url(#Безымянный_градиент_326);}.cls-23{fill:#a70047;}.cls-24{fill:#f2f0f5;}.cls-111,.cls-24,.cls-40,.cls-77{mix-blend-mode:soft-light;}.cls-25{fill:url(#Безымянный_градиент_337);}.cls-26{fill:url(#Безымянный_градиент_72);}.cls-27{fill:#5440be;}.cls-28{fill:#9c75d8;}.cls-29{fill:#6654c5;}.cls-128,.cls-137,.cls-149,.cls-30,.cls-74,.cls-96{fill:#614881;}.cls-120,.cls-128,.cls-30{opacity:0.3;}.cls-31{fill:url(#Безымянный_градиент_162);}.cls-32{fill:url(#Безымянный_градиент_365);}.cls-33{fill:url(#Безымянный_градиент_380);}.cls-34{fill:url(#Безымянный_градиент_108);}.cls-144,.cls-35{fill:#b15a93;}.cls-36{fill:url(#Безымянный_градиент_365-2);}.cls-37{fill:url(#Безымянный_градиент_377);}.cls-38{fill:url(#Безымянный_градиент_72-2);}.cls-39{fill:url(#Безымянный_градиент_164);}.cls-40{font-size:13.01px;fill:#ffdded;font-family:Poppins-Regular, Poppins;}.cls-41{fill:url(#Безымянный_градиент_10);}.cls-42{fill:url(#Безымянный_градиент_7);}.cls-43{fill:#598800;}.cls-44{fill:#5e9339;}.cls-45{fill:#97b368;}.cls-46{fill:#b1cc00;}.cls-47{fill:#e5cc00;}.cls-48{fill:#ead631;}.cls-49{fill:url(#Безымянный_градиент_10-2);}.cls-50{fill:url(#Безымянный_градиент_7-2);}.cls-51{fill:#005d88;}.cls-52{fill:#005ad9;}.cls-53{fill:#5b5bff;}.cls-54{fill:#8d91ff;}.cls-55{fill:#c2baff;}.cls-56{fill:#ff8df4;}.cls-57{fill:#914881;}.cls-58{fill:url(#Безымянный_градиент_10-3);}.cls-59{fill:url(#Безымянный_градиент_7-3);}.cls-60{fill:#88005b;}.cls-61{fill:#d9005b;}.cls-62{fill:#ff665b;}.cls-63{fill:#ff928d;}.cls-64{fill:#ffc4ba;}.cls-65{fill:#ffd88d;}.cls-66{fill:url(#Безымянный_градиент_10-4);}.cls-67{fill:url(#Безымянный_градиент_12);}.cls-68{fill:url(#Безымянный_градиент_26);}.cls-69{fill:url(#Безымянный_градиент_118);}.cls-70{fill:url(#Безымянный_градиент_75);}.cls-71{fill:url(#Безымянный_градиент_75-2);}.cls-72{fill:url(#Безымянный_градиент_118-2);}.cls-73{fill:url(#Безымянный_градиент_26-2);}.cls-75{fill:url(#Безымянный_градиент_97);}.cls-76{fill:url(#Безымянный_градиент_85);}.cls-112,.cls-77,.cls-79{fill:#fff;}.cls-77{opacity:0.6;}.cls-78{fill:url(#Безымянный_градиент_72-3);}.cls-80{fill:url(#Безымянный_градиент_310);}.cls-81{fill:url(#Безымянный_градиент_106);}.cls-82{fill:#ff6bff;}.cls-83{fill:url(#Безымянный_градиент_132);}.cls-84{fill:url(#Безымянный_градиент_94);}.cls-85{fill:url(#Безымянный_градиент_94-2);}.cls-86{fill:#ddaee5;}.cls-87{fill:#f0dbf4;}.cls-88{fill:#ceecf4;}.cls-89{fill:#cec4f4;}.cls-90{fill:#ced1f4;}.cls-91{fill:#ffc4f4;}.cls-92{fill:url(#Безымянный_градиент_94-3);}.cls-93{fill:url(#Безымянный_градиент_132-2);}.cls-94{fill:url(#Безымянный_градиент_132-3);}.cls-95{fill:#130025;}.cls-97{fill:#6148b0;}.cls-98{fill:url(#Безымянный_градиент_72-4);}.cls-99{fill:#a900ff;}.cls-100{fill:#f0f;}.cls-101{fill:#ff60ff;}.cls-102{fill:#ff86ff;}.cls-103{fill:#ffb0ff;}.cls-104{fill:#ffdbff;}.cls-105{fill:#2f56ff;}.cls-106{fill:#2e8eff;}.cls-107{fill:#7f97ff;}.cls-108{fill:#cec2ff;}.cls-109{fill:#2fe7ff;}.cls-110{fill:#b0bfff;}.cls-111{fill:#ddc2ff;}.cls-113{fill:url(#Безымянный_градиент_210);}.cls-114,.cls-116,.cls-117,.cls-147{opacity:0.8;}.cls-115{fill:url(#Безымянный_градиент_282);}.cls-116{fill:url(#Безымянный_градиент_253);}.cls-117{fill:url(#Безымянный_градиент_253-2);}.cls-118{fill:url(#Безымянный_градиент_276);}.cls-119{fill:url(#Безымянный_градиент_276-2);}.cls-120{fill:url(#Безымянный_градиент_279);}.cls-121{fill:url(#Безымянный_градиент_227);}.cls-122{fill:url(#Безымянный_градиент_244);}.cls-123{fill:url(#Безымянный_градиент_234);}.cls-124{fill:url(#Безымянный_градиент_240);}.cls-125{fill:url(#Безымянный_градиент_240-2);}.cls-126{fill:url(#Безымянный_градиент_26-3);}.cls-127{fill:url(#Безымянный_градиент_26-4);}.cls-129{fill:url(#Безымянный_градиент_151);}.cls-130{fill:url(#Безымянный_градиент_157);}.cls-131{fill:url(#Безымянный_градиент_154);}.cls-132{fill:url(#Безымянный_градиент_398);}.cls-133{fill:url(#Безымянный_градиент_80);}.cls-134{fill:url(#Безымянный_градиент_399);}.cls-135{fill:url(#Безымянный_градиент_184);}.cls-136{fill:#9f2e45;}.cls-138{fill:url(#Безымянный_градиент_337-2);}.cls-139{fill:url(#Безымянный_градиент_72-5);}.cls-140{fill:#7c77ff;}.cls-141{fill:url(#Безымянный_градиент_449);}.cls-142{fill:url(#Безымянный_градиент_158);}.cls-143{fill:#9a0054;}.cls-145{fill:url(#Безымянный_градиент_134);}.cls-146{fill:url(#Безымянный_градиент_127);}.cls-147{fill:url(#Безымянный_градиент_87);}.cls-150{fill:url(#Безымянный_градиент_95);}.cls-151{fill:url(#Безымянный_градиент_109);}.cls-152{fill:url(#Безымянный_градиент_137);}.cls-153{fill:url(#Безымянный_градиент_141);}.cls-154{fill:url(#Безымянный_градиент_146);}.cls-155{fill:url(#Безымянный_градиент_170);}</style><clipPath id="clip-path"><rect class="cls-1" width="900" height="500"/></clipPath><linearGradient id="Безымянный_градиент_182" x1="453.18" y1="201.04" x2="453.18" y2="99.02" gradientTransform="matrix(0.98, 0.22, -0.22, 0.98, 34.31, -99.94)" gradientUnits="userSpaceOnUse"><stop offset="0" stop-color="#590e86"/><stop offset="0.98" stop-color="#4d2b90"/></linearGradient><radialGradient id="Безымянный_градиент_214" cx="415.76" cy="139.79" r="73.16" gradientTransform="translate(463 -275.85) rotate(76.97)" gradientUnits="userSpaceOnUse"><stop offset="0.02" stop-color="#462490"/><stop offset="0.67" stop-color="#470189"/><stop offset="1" stop-color="#b14a48"/></radialGradient><radialGradient id="Безымянный_градиент_218" cx="396.65" cy="147.89" r="22.53" gradientTransform="translate(446.41 -272.49) rotate(76.3)" gradientUnits="userSpaceOnUse"><stop offset="0" stop-color="#005eff"/><stop offset="0.03" stop-color="#0058ef"/><stop offset="0.14" stop-color="#0044b8"/><stop offset="0.25" stop-color="#003287"/><stop offset="0.37" stop-color="#00225d"/><stop offset="0.48" stop-color="#00163c"/><stop offset="0.6" stop-color="#000c21"/><stop offset="0.72" stop-color="#00050f"/><stop offset="0.85" stop-color="#000104"/><stop offset="0.99"/></radialGradient><radialGradient id="Безымянный_градиент_216" cx="406.52" cy="124.22" r="22.53" gradientTransform="matrix(1, 0, 0, 1.2, 12.67, -8.63)" gradientUnits="userSpaceOnUse"><stop offset="0" stop-color="#009cff"/><stop offset="0.03" stop-color="#0092ef"/><stop offset="0.14" stop-color="#0071b8"/><stop offset="0.25" stop-color="#005287"/><stop offset="0.37" stop-color="#00395d"/><stop offset="0.48" stop-color="#00243c"/><stop offset="0.6" stop-color="#001421"/><stop offset="0.72" stop-color="#00090f"/><stop offset="0.85" stop-color="#000204"/><stop offset="0.99"/></radialGradient><radialGradient id="Безымянный_градиент_214-2" cx="294" cy="167.14" r="56.53" gradientTransform="matrix(0.7, 0.72, -0.72, 0.7, 229.44, -157.48)" xlink:href="#Безымянный_градиент_214"/><radialGradient id="Безымянный_градиент_218-2" cx="279.24" cy="173.4" r="17.41" gradientTransform="matrix(0.56, 0.83, -0.83, 0.56, 281.48, -157.77)" xlink:href="#Безымянный_градиент_218"/><radialGradient id="Безымянный_градиент_216-2" cx="282.16" cy="107.73" r="17.41" gradientTransform="matrix(0.63, -0.78, 0.94, 0.75, 28.85, 296.18)" xlink:href="#Безымянный_градиент_216"/><linearGradient id="Безымянный_градиент_188" x1="464.58" y1="287.69" x2="464.58" y2="235.96" gradientTransform="matrix(0.92, 0.39, -0.39, 0.92, 125.71, -171.39)" gradientUnits="userSpaceOnUse"><stop offset="0" stop-color="#590e86"/><stop offset="0.98" stop-color="#462490"/></linearGradient><linearGradient id="Безымянный_градиент_37" x1="487.9" y1="289.1" x2="487.9" y2="237.21" gradientTransform="matrix(1, 0.07, -0.07, 1, 19.16, -34.67)" gradientUnits="userSpaceOnUse"><stop offset="0" stop-color="#2c3bae"/><stop offset="0.98" stop-color="#4624a9"/></linearGradient><linearGradient id="Безымянный_градиент_188-2" x1="85.33" y1="438.67" x2="85.33" y2="380.91" gradientTransform="translate(-164.88 -42.93) rotate(-29.18)" xlink:href="#Безымянный_градиент_188"/><linearGradient id="Безымянный_градиент_188-3" x1="112.64" y1="549.14" x2="112.64" y2="517.88" gradientTransform="matrix(-0.92, -0.39, -0.39, 0.92, 473.97, -327.12)" xlink:href="#Безымянный_градиент_188"/><linearGradient id="Безымянный_градиент_182-2" x1="129.54" y1="196.58" x2="129.54" y2="157.05" gradientTransform="translate(75.64 -31.97) rotate(25.28)" xlink:href="#Безымянный_градиент_182"/><radialGradient id="Безымянный_градиент_325" cx="186.75" cy="184.52" r="20.81" gradientTransform="matrix(0.89, 0.45, -0.45, 0.89, 105.13, -84.28)" gradientUnits="userSpaceOnUse"><stop offset="0" stop-color="#ff224d"/><stop offset="0.01" stop-color="#fd214d"/><stop offset="0.24" stop-color="#e41353"/><stop offset="0.46" stop-color="#d10857"/><stop offset="0.7" stop-color="#c70259"/><stop offset="0.97" stop-color="#c3005a"/></radialGradient><linearGradient id="Безымянный_градиент_326" x1="185.81" y1="217.79" x2="185.81" y2="168.41" gradientTransform="matrix(0.89, 0.45, -0.45, 0.89, 105.13, -84.28)" gradientUnits="userSpaceOnUse"><stop offset="0" stop-color="#ff427e"/><stop offset="1" stop-color="#ff5973"/></linearGradient><linearGradient id="Безымянный_градиент_337" x1="225.89" y1="230.93" x2="287.71" y2="169.11" gradientTransform="matrix(0.89, 0.45, -0.45, 0.89, 105.13, -84.28)" gradientUnits="userSpaceOnUse"><stop offset="0.03" stop-color="#9042ff"/><stop offset="1" stop-color="#6e7cff"/></linearGradient><linearGradient id="Безымянный_градиент_72" x1="224.17" y1="226.19" x2="289.43" y2="160.93" gradientTransform="matrix(0.89, 0.45, -0.45, 0.89, 105.13, -84.28)" gradientUnits="userSpaceOnUse"><stop offset="0.03" stop-color="#bb86ff"/><stop offset="1" stop-color="#7c9fff"/></linearGradient><linearGradient id="Безымянный_градиент_162" x1="421.07" y1="313.55" x2="430.07" y2="297.96" gradientUnits="userSpaceOnUse"><stop offset="0.03" stop-color="#ffbd00"/><stop offset="1" stop-color="#ffe727"/></linearGradient><linearGradient id="Безымянный_градиент_365" x1="438.95" y1="446.77" x2="438.95" y2="312.48" gradientUnits="userSpaceOnUse"><stop offset="0" stop-color="#2d2f76"/><stop offset="0.98" stop-color="#531d68"/></linearGradient><linearGradient id="Безымянный_градиент_380" x1="437.71" y1="446.38" x2="437.71" y2="312.09" gradientUnits="userSpaceOnUse"><stop offset="0" stop-color="#593c9c"/><stop offset="0.98" stop-color="#5c0c77"/></linearGradient><linearGradient id="Безымянный_градиент_108" x1="435.93" y1="444.12" x2="435.93" y2="314.35" gradientUnits="userSpaceOnUse"><stop offset="0" stop-color="#4aa0ff"/><stop offset="1" stop-color="#00cea9"/></linearGradient><linearGradient id="Безымянный_градиент_365-2" x1="426.21" y1="446.77" x2="426.21" y2="312.48" xlink:href="#Безымянный_градиент_365"/><linearGradient id="Безымянный_градиент_377" x1="424.96" y1="446.38" x2="424.96" y2="312.09" gradientUnits="userSpaceOnUse"><stop offset="0.02" stop-color="#6b2289"/><stop offset="1" stop-color="#594a9c"/></linearGradient><linearGradient id="Безымянный_градиент_72-2" x1="451.12" y1="447.63" x2="451.12" y2="310.25" gradientTransform="matrix(1, 0, 0, 1, 0, 0)" xlink:href="#Безымянный_градиент_72"/><linearGradient id="Безымянный_градиент_164" x1="396.25" y1="313.94" x2="403.58" y2="301.24" gradientUnits="userSpaceOnUse"><stop offset="0" stop-color="#fe0173"/><stop offset="1" stop-color="#d842ff"/></linearGradient><linearGradient id="Безымянный_градиент_10" x1="249.45" y1="382.5" x2="249.45" y2="262.94" gradientTransform="translate(-62.32 314.51) rotate(-62.42)" gradientUnits="userSpaceOnUse"><stop offset="0.02" stop-color="#c289b0"/><stop offset="1" stop-color="#ff93ac"/></linearGradient><linearGradient id="Безымянный_градиент_7" x1="249.63" y1="382.08" x2="249.63" y2="262.52" gradientTransform="translate(-62.32 314.51) rotate(-62.42)" gradientUnits="userSpaceOnUse"><stop offset="0.02" stop-color="#ffdbe7"/><stop offset="1" stop-color="#ffe8de"/></linearGradient><linearGradient id="Безымянный_градиент_10-2" x1="259.3" y1="356.69" x2="259.3" y2="263.9" xlink:href="#Безымянный_градиент_10"/><linearGradient id="Безымянный_градиент_7-2" x1="259.39" y1="356.24" x2="259.39" y2="263.45" xlink:href="#Безымянный_градиент_7"/><linearGradient id="Безымянный_градиент_10-3" x1="265.96" y1="326.54" x2="265.96" y2="262.52" xlink:href="#Безымянный_градиент_10"/><linearGradient id="Безымянный_градиент_7-3" x1="265.95" y1="326.09" x2="265.95" y2="262.06" xlink:href="#Безымянный_градиент_7"/><linearGradient id="Безымянный_градиент_10-4" x1="265.96" y1="310.74" x2="265.96" y2="259.25" xlink:href="#Безымянный_градиент_10"/><linearGradient id="Безымянный_градиент_12" x1="265.96" y1="310.3" x2="265.96" y2="258.81" gradientTransform="translate(-62.32 314.51) rotate(-62.42)" gradientUnits="userSpaceOnUse"><stop offset="0.02" stop-color="#ffe5ee"/><stop offset="1" stop-color="#ffe8de"/></linearGradient><linearGradient id="Безымянный_градиент_26" x1="189.49" y1="275.65" x2="189.49" y2="265.96" gradientTransform="translate(-62.32 314.51) rotate(-62.42)" gradientUnits="userSpaceOnUse"><stop offset="0.02" stop-color="#b1acc7"/><stop offset="1" stop-color="#cccae2"/></linearGradient><linearGradient id="Безымянный_градиент_118" x1="189.49" y1="273.61" x2="189.49" y2="268" gradientTransform="translate(-62.32 314.51) rotate(-62.42)" gradientUnits="userSpaceOnUse"><stop offset="0" stop-color="#a6a3cc"/><stop offset="0.98" stop-color="#8c7dac"/></linearGradient><radialGradient id="Безымянный_градиент_75" cx="273.51" cy="416.95" r="65.17" gradientTransform="translate(-604.45 402.31) scale(3.24 0.11)" gradientUnits="userSpaceOnUse"><stop offset="0" stop-color="#364a9f"/><stop offset="0.04" stop-color="#485aa8"/><stop offset="0.17" stop-color="#7886bf"/><stop offset="0.3" stop-color="#a2abd2"/><stop offset="0.43" stop-color="#c3c9e3"/><stop offset="0.56" stop-color="#dee1ef"/><stop offset="0.69" stop-color="#f0f2f8"/><stop offset="0.83" stop-color="#fbfcfd"/><stop offset="0.99" stop-color="#fff"/></radialGradient><radialGradient id="Безымянный_градиент_75-2" cx="273.51" cy="416.95" r="36.75" xlink:href="#Безымянный_градиент_75"/><linearGradient id="Безымянный_градиент_118-2" x1="277.95" y1="439.67" x2="277.95" y2="408.98" gradientTransform="matrix(1, 0, 0, 1, 0, 0)" xlink:href="#Безымянный_градиент_118"/><linearGradient id="Безымянный_градиент_26-2" x1="277.35" y1="445.65" x2="277.35" y2="439.67" gradientTransform="matrix(1, 0, 0, 1, 0, 0)" xlink:href="#Безымянный_градиент_26"/><linearGradient id="Безымянный_градиент_97" x1="135.98" y1="325.23" x2="420.02" y2="325.23" gradientUnits="userSpaceOnUse"><stop offset="0" stop-color="#ffc393"/><stop offset="0.12" stop-color="#9272ae"/><stop offset="0.91" stop-color="#8f87ae"/><stop offset="1" stop-color="#e7e6f1"/></linearGradient><radialGradient id="Безымянный_градиент_85" cx="150.34" cy="293.89" r="185.07" gradientUnits="userSpaceOnUse"><stop offset="0" stop-color="#ac344c"/><stop offset="0.98" stop-color="#4d2b90"/></radialGradient><linearGradient id="Безымянный_градиент_72-3" x1="180.58" y1="424.95" x2="376.72" y2="228.82" gradientTransform="matrix(1, 0, 0, 1, 0, 0)" xlink:href="#Безымянный_градиент_72"/><linearGradient id="Безымянный_градиент_310" x1="142.22" y1="316.94" x2="413.6" y2="316.94" gradientUnits="userSpaceOnUse"><stop offset="0.02" stop-color="#1a0018"/><stop offset="1" stop-color="#0b0425"/></linearGradient><linearGradient id="Безымянный_градиент_106" x1="400.74" y1="399.58" x2="405.19" y2="393.47" gradientUnits="userSpaceOnUse"><stop offset="0.03" stop-color="#bd5ac9"/><stop offset="1" stop-color="#a45cff"/></linearGradient><linearGradient id="Безымянный_градиент_132" x1="253.51" y1="359.72" x2="315.79" y2="274" gradientUnits="userSpaceOnUse"><stop offset="0.03" stop-color="#ff9ddf"/><stop offset="1" stop-color="#e0c7ff"/></linearGradient><linearGradient id="Безымянный_градиент_94" x1="279.95" y1="351" x2="339.67" y2="268.81" gradientUnits="userSpaceOnUse"><stop offset="0.03" stop-color="#ff6bcf"/><stop offset="1" stop-color="#b67cff"/></linearGradient><linearGradient id="Безымянный_градиент_94-2" x1="186.43" y1="275.12" x2="197.21" y2="260.28" xlink:href="#Безымянный_градиент_94"/><linearGradient id="Безымянный_градиент_94-3" x1="252.16" y1="303.06" x2="262.52" y2="288.8" xlink:href="#Безымянный_градиент_94"/><linearGradient id="Безымянный_градиент_132-2" x1="235.62" y1="297.84" x2="241.15" y2="290.23" xlink:href="#Безымянный_градиент_132"/><linearGradient id="Безымянный_градиент_132-3" x1="191.93" y1="313.6" x2="195.34" y2="308.9" xlink:href="#Безымянный_градиент_132"/><linearGradient id="Безымянный_градиент_72-4" x1="283.56" y1="308.94" x2="395.35" y2="308.94" gradientTransform="matrix(1, 0, 0, 1, 0, 0)" xlink:href="#Безымянный_градиент_72"/><radialGradient id="Безымянный_градиент_210" cx="97.04" cy="341.02" r="48.15" gradientTransform="translate(0 -140.89) scale(1 1.41)" gradientUnits="userSpaceOnUse"><stop offset="0.25" stop-color="#fffeae"/><stop offset="0.29" stop-color="#fff9a8"/><stop offset="0.48" stop-color="#ffe795"/><stop offset="0.68" stop-color="#ffdd89"/><stop offset="0.87" stop-color="#ffd985"/><stop offset="0.89" stop-color="#ffd385"/><stop offset="0.94" stop-color="#ffc884"/><stop offset="1" stop-color="#ffc584"/></radialGradient><radialGradient id="Безымянный_градиент_282" cx="92.68" cy="361.36" r="41.42" gradientUnits="userSpaceOnUse"><stop offset="0.06" stop-color="#fff"/><stop offset="0.15" stop-color="#fefbfd"/><stop offset="0.99" stop-color="#ffbede"/></radialGradient><linearGradient id="Безымянный_градиент_253" x1="92.9" y1="403.24" x2="92.9" y2="362.29" gradientUnits="userSpaceOnUse"><stop offset="0.01" stop-color="#d486c2"/><stop offset="0.94" stop-color="#ffddd1"/></linearGradient><linearGradient id="Безымянный_градиент_253-2" x1="92.52" y1="404.15" x2="92.52" y2="399.17" xlink:href="#Безымянный_градиент_253"/><radialGradient id="Безымянный_градиент_276" cx="106" cy="339.76" r="17.77" gradientTransform="translate(424.4 180.7) rotate(80.78)" gradientUnits="userSpaceOnUse"><stop offset="0.01" stop-color="#ffffa9"/><stop offset="0.09" stop-color="#e0e095"/><stop offset="0.28" stop-color="#9d9d68"/><stop offset="0.46" stop-color="#656543"/><stop offset="0.62" stop-color="#393926"/><stop offset="0.77" stop-color="#1a1a11"/><stop offset="0.9" stop-color="#070705"/><stop offset="0.99"/></radialGradient><radialGradient id="Безымянный_градиент_276-2" cx="-131.6" cy="297.98" r="16.57" gradientTransform="matrix(0.49, -0.2, 0.38, 0.93, 16.8, 58.47)" xlink:href="#Безымянный_градиент_276"/><linearGradient id="Безымянный_градиент_279" x1="92.51" y1="405.82" x2="92.51" y2="359.49" gradientUnits="userSpaceOnUse"><stop offset="0.01" stop-color="#d486c2"/><stop offset="0.94" stop-color="#fff"/></linearGradient><radialGradient id="Безымянный_градиент_227" cx="91.67" cy="406.27" r="15.82" gradientTransform="translate(0 -74.49) scale(1 1.18)" gradientUnits="userSpaceOnUse"><stop offset="0" stop-color="#b3b0d3"/><stop offset="0.46" stop-color="#b1aed1"/><stop offset="0.69" stop-color="#aca6cb"/><stop offset="0.87" stop-color="#a399c1"/><stop offset="0.98" stop-color="#998cb6"/></radialGradient><linearGradient id="Безымянный_градиент_244" x1="92.4" y1="428.79" x2="92.4" y2="424.94" gradientUnits="userSpaceOnUse"><stop offset="0" stop-color="#7f7bb5"/><stop offset="0.98" stop-color="#685491"/></linearGradient><radialGradient id="Безымянный_градиент_234" cx="92.33" cy="428.2" r="7.51" gradientTransform="translate(0 -367.95) scale(1 1.86)" gradientUnits="userSpaceOnUse"><stop offset="0" stop-color="#474b72"/><stop offset="0.42" stop-color="#474870"/><stop offset="0.69" stop-color="#454068"/><stop offset="0.92" stop-color="#43315a"/><stop offset="0.98" stop-color="#422b55"/></radialGradient><radialGradient id="Безымянный_градиент_240" cx="92.9" cy="418.65" r="14.68" gradientTransform="translate(0 -359.74) scale(1 1.86)" gradientUnits="userSpaceOnUse"><stop offset="0" stop-color="#9490c1"/><stop offset="0.45" stop-color="#938ebf"/><stop offset="0.68" stop-color="#8d86b9"/><stop offset="0.85" stop-color="#8579ae"/><stop offset="0.98" stop-color="#7a69a0"/></radialGradient><radialGradient id="Безымянный_градиент_240-2" cx="93.64" cy="409.82" r="15.29" gradientTransform="translate(0 -352.15) scale(1 1.86)" xlink:href="#Безымянный_градиент_240"/><linearGradient id="Безымянный_градиент_26-3" x1="93.64" y1="414.18" x2="93.64" y2="403.24" gradientTransform="matrix(1, 0, 0, 1, 0, 0)" xlink:href="#Безымянный_градиент_26"/><linearGradient id="Безымянный_градиент_26-4" x1="92.9" y1="421.41" x2="92.9" y2="412.61" gradientTransform="matrix(1, 0, 0, 1, 0, 0)" xlink:href="#Безымянный_градиент_26"/><linearGradient id="Безымянный_градиент_151" x1="243.88" y1="104.61" x2="245.23" y2="133.23" gradientTransform="matrix(-0.85, -0.53, 0.38, -0.62, 291.91, 448.99)" gradientUnits="userSpaceOnUse"><stop offset="0" stop-color="#e55036"/><stop offset="0.42" stop-color="#5b1b5c"/><stop offset="0.98" stop-color="#2a164a"/></linearGradient><linearGradient id="Безымянный_градиент_157" x1="211.04" y1="116.99" x2="211.04" y2="97.15" gradientTransform="translate(281.8 465.96) rotate(-148.28)" gradientUnits="userSpaceOnUse"><stop offset="0.03" stop-color="#9a007e"/><stop offset="0.38" stop-color="#cd0558"/><stop offset="1" stop-color="#ff792e"/></linearGradient><radialGradient id="Безымянный_градиент_154" cx="164.17" cy="100.17" r="2.47" gradientTransform="matrix(-0.85, -0.53, 0.24, -0.39, 313.09, 414.84)" gradientUnits="userSpaceOnUse"><stop offset="0" stop-color="#2f3460"/><stop offset="0.64" stop-color="#391b5c"/><stop offset="0.98" stop-color="#2a164a"/></radialGradient><linearGradient id="Безымянный_градиент_398" x1="240.95" y1="103.18" x2="323.26" y2="103.18" gradientTransform="translate(281.8 465.96) rotate(-148.28)" gradientUnits="userSpaceOnUse"><stop offset="0.01" stop-color="#6052a9"/><stop offset="0.06" stop-color="#594c9c"/><stop offset="0.29" stop-color="#393165"/><stop offset="0.51" stop-color="#211c39"/><stop offset="0.71" stop-color="#0f0d1a"/><stop offset="0.87" stop-color="#040307"/><stop offset="0.99"/></linearGradient><linearGradient id="Безымянный_градиент_80" x1="308.61" y1="114.06" x2="308.61" y2="100.13" gradientTransform="translate(281.8 465.96) rotate(-148.28)" gradientUnits="userSpaceOnUse"><stop offset="0.43" stop-color="#d8d9ff"/><stop offset="0.84" stop-color="#80618e"/><stop offset="0.96" stop-color="#e3dce6"/></linearGradient><linearGradient id="Безымянный_градиент_399" x1="172.61" y1="116.01" x2="172.61" y2="98.18" gradientTransform="translate(281.8 465.96) rotate(-148.28)" gradientUnits="userSpaceOnUse"><stop offset="0.01"/><stop offset="0.13" stop-color="#040307"/><stop offset="0.29" stop-color="#0f0d1a"/><stop offset="0.49" stop-color="#211c39"/><stop offset="0.71" stop-color="#393165"/><stop offset="0.94" stop-color="#594c9c"/><stop offset="0.99" stop-color="#6052a9"/></linearGradient><linearGradient id="Безымянный_градиент_184" x1="206.17" y1="102.53" x2="206.17" y2="98.64" gradientTransform="translate(281.8 465.96) rotate(-148.28)" gradientUnits="userSpaceOnUse"><stop offset="0.03" stop-color="#930045"/><stop offset="1" stop-color="#6b004d"/></linearGradient><linearGradient id="Безымянный_градиент_337-2" x1="527.58" y1="448.54" x2="527.58" y2="392.2" gradientTransform="matrix(1, 0, 0, 1, 0, 0)" xlink:href="#Безымянный_градиент_337"/><linearGradient id="Безымянный_градиент_72-5" x1="517.54" y1="448.54" x2="517.54" y2="389.54" gradientTransform="matrix(1, 0, 0, 1, 0, 0)" xlink:href="#Безымянный_градиент_72"/><linearGradient id="Безымянный_градиент_449" x1="579.11" y1="449.21" x2="579.11" y2="400.97" gradientUnits="userSpaceOnUse"><stop offset="0" stop-color="#7c004d"/><stop offset="0.97" stop-color="#af0059"/></linearGradient><linearGradient id="Безымянный_градиент_158" x1="571.47" y1="449.21" x2="571.47" y2="400.97" gradientUnits="userSpaceOnUse"><stop offset="0" stop-color="#ff224d"/><stop offset="0.97" stop-color="#c3005a"/></linearGradient><radialGradient id="Безымянный_градиент_134" cx="118.95" cy="456.94" r="57.4" gradientTransform="translate(32.08 263.68) rotate(0.15) scale(1 0.43)" gradientUnits="userSpaceOnUse"><stop offset="0" stop-color="#272360"/><stop offset="0.98" stop-color="#27003d"/></radialGradient><linearGradient id="Безымянный_градиент_127" x1="79.93" y1="435.86" x2="199.45" y2="435.86" gradientTransform="translate(32.77 1.42) rotate(0.15)" gradientUnits="userSpaceOnUse"><stop offset="0" stop-color="#c43440"/><stop offset="0.64" stop-color="#6d1b5c"/><stop offset="0.98" stop-color="#2a2cd4"/></linearGradient><linearGradient id="Безымянный_градиент_87" x1="79.93" y1="445.18" x2="177.47" y2="445.18" gradientTransform="translate(32.77 1.42) rotate(0.15)" gradientUnits="userSpaceOnUse"><stop offset="0.01" stop-color="#542f83"/><stop offset="0.94" stop-color="#fff"/></linearGradient><radialGradient id="Безымянный_градиент_95" cx="114.4" cy="417.21" r="8.95" gradientTransform="translate(32.77 1.42) rotate(0.15)" gradientUnits="userSpaceOnUse"><stop offset="0" stop-color="#635272"/><stop offset="0.31" stop-color="#614f70"/><stop offset="0.52" stop-color="#594669"/><stop offset="0.7" stop-color="#4c375e"/><stop offset="0.86" stop-color="#3a224e"/><stop offset="0.98" stop-color="#270c3d"/></radialGradient><radialGradient id="Безымянный_градиент_109" cx="106.04" cy="421.8" r="10.16" gradientTransform="translate(32.77 1.42) rotate(0.15)" gradientUnits="userSpaceOnUse"><stop offset="0" stop-color="#2f1160"/><stop offset="0.98" stop-color="#1d002c"/></radialGradient><linearGradient id="Безымянный_градиент_137" x1="149.97" y1="431.18" x2="189.78" y2="431.18" gradientTransform="translate(32.77 1.42) rotate(0.15)" gradientUnits="userSpaceOnUse"><stop offset="0.07" stop-color="#f92cff"/><stop offset="0.6" stop-color="#009fff"/><stop offset="0.99" stop-color="#00ff90"/></linearGradient><linearGradient id="Безымянный_градиент_141" x1="113.65" y1="417.06" x2="133.83" y2="417.06" gradientTransform="translate(32.77 1.42) rotate(0.15)" gradientUnits="userSpaceOnUse"><stop offset="0" stop-color="#009fff"/><stop offset="0.93" stop-color="#f92cff"/></linearGradient><radialGradient id="Безымянный_градиент_146" cx="408.58" cy="337.76" r="8.99" gradientTransform="matrix(2.3, 0, 0, 0.76, -789.03, 171.55)" gradientUnits="userSpaceOnUse"><stop offset="0.01" stop-color="#003772"/><stop offset="0.09" stop-color="#003064"/><stop offset="0.37" stop-color="#001c39"/><stop offset="0.62" stop-color="#000d1a"/><stop offset="0.84" stop-color="#000307"/><stop offset="0.99"/></radialGradient><radialGradient id="Безымянный_градиент_170" cx="112.52" cy="434.08" r="16.46" gradientTransform="matrix(1, 0, 0, 0.39, 32.08, 265.82)" gradientUnits="userSpaceOnUse"><stop offset="0" stop-color="#0f062d"/><stop offset="0.98" stop-color="#0e0020"/></radialGradient></defs><title>laptop</title><g class="cls-2"><g id="objects"><g class="cls-3"><path class="cls-4" d="M492.55,104.45,416,92l-21.33,95,75.54,17ZM465.6,196l-46.45-9.72,16.48-83.24,49.27,7Z"/><polygon class="cls-5" points="479.53 206.08 469.15 203.63 492.55 104.44 504.88 107.38 479.53 206.08"/><polygon class="cls-5" points="484.9 110.05 435.63 103.05 419.15 186.29 402.55 182.81 419.54 97.01 485.51 107.31 484.9 110.05"/><polygon class="cls-6" points="419.54 97.01 433.36 114.55 435.63 103.05 484.9 110.05 485.51 107.31 419.54 97.01"/><polygon class="cls-6" points="434.67 196.01 438.49 190.34 423.43 187.18 417.7 192.2 434.67 196.01"/><circle class="cls-7" cx="404.99" cy="153.26" r="44.64" transform="translate(164.37 513.27) rotate(-76.97)"/><circle class="cls-8" cx="396.65" cy="147.89" r="22.53" transform="translate(159.03 498.24) rotate(-76.3)"/><ellipse class="cls-9" cx="419.17" cy="140.38" rx="22.53" ry="27.03" transform="translate(-22.45 159.96) rotate(-21.05)"/><circle class="cls-10" cx="301.72" cy="171" r="34.49" transform="translate(62.62 422.22) rotate(-75.96)"/><circle class="cls-11" cx="294.07" cy="170.67" r="17.41" transform="translate(104.25 452.75) rotate(-86.19)"/><path class="cls-12" d="M317.07,143.31c9,7.22,11.42,19.14,5.41,26.64s-18.18,7.74-27.18.52-11.42-19.14-5.41-26.64S308.08,136.1,317.07,143.31Z"/><polygon class="cls-13" points="441.93 219.74 426.42 263.06 459.15 283.29 478.88 236.97 441.93 219.74"/><polygon class="cls-14" points="478.88 236.97 513.45 247.96 490.77 289.87 459.15 283.29 478.88 236.97"/><polygon class="cls-15" points="441.93 219.74 480.51 230.43 513.45 247.96 478.88 236.97 441.93 219.74"/><polygon class="cls-16" points="75.45 259.14 103.09 302.45 143.33 287.39 115.92 238.31 75.45 259.14"/><polygon class="cls-17" points="115.92 238.31 149.25 215.31 170.75 263.98 143.33 287.39 115.92 238.31"/><polygon class="cls-15" points="75.45 259.14 111.27 232.39 149.25 215.31 115.92 238.31 75.45 259.14"/><polygon class="cls-18" points="181.71 112.04 169.49 137.03 146.93 131.39 158.66 103.32 181.71 112.04"/><polygon class="cls-17" points="158.66 103.32 139.32 92.99 129.33 117.9 146.93 131.39 158.66 103.32"/><polygon class="cls-15" points="181.71 112.04 160.8 99.85 139.32 92.99 158.66 103.32 181.71 112.04"/><path class="cls-19" d="M113.87,159.78,59,154l57,50.48,59.73,7.65Zm2.29,41.73-47.33-44.2,45.55,5.91,53,45.33Z"/><polygon class="cls-20" points="58.98 154 59.3 160.29 114.13 208.67 115.95 204.48 58.98 154"/><polygon class="cls-5" points="175.68 212.13 172 214.98 114.13 208.67 115.95 204.48 175.68 212.13"/><polygon class="cls-5" points="72.72 160.49 113.94 165.26 160.44 207.59 167.42 208.55 114.38 163.22 68.83 157.31 72.72 160.49"/><path class="cls-21" d="M204.5,174.86l-.22-3.8,2.21-7.2-4.61-7L194.4,156l-3.4-1.7-5.13-5.52-8.38.49L173,155.36l-3.18,2.08-7.34,1.68-3.77,7.5,3,6.9.22,3.79-2.22,7.2,4.61,7,7.49.82,3.39,1.71,5.13,5.51,8.38-.48,4.46-6.07,3.17-2.09,7.34-1.68,3.78-7.5ZM177.3,185.8A13,13,0,1,1,194.75,180,13,13,0,0,1,177.3,185.8Z"/><path class="cls-22" d="M206.44,172.38l-.23-3.91L208.5,161l-4.76-7.25-7.73-.85-3.5-1.76-5.29-5.69-8.66.5-4.6,6.26-3.27,2.16-7.58,1.73-3.9,7.75,3.13,7.11.23,3.92-2.29,7.43,4.76,7.24,7.73.86,3.5,1.76,5.3,5.69,8.65-.5,4.6-6.26L198.1,189l7.58-1.73,3.89-7.75Zm-28.08,11.3a13.42,13.42,0,1,1,18-6A13.41,13.41,0,0,1,178.36,183.68Z"/><polygon class="cls-23" points="158.75 166.62 159.21 163.89 162.34 171 161.78 173.52 158.75 166.62"/><polygon class="cls-23" points="164.39 191.53 165.04 189.59 172.77 190.44 171.88 192.35 164.39 191.53"/><polygon class="cls-23" points="203.75 189.25 205.68 187.25 198.1 188.98 196.41 190.93 203.75 189.25"/><polygon class="cls-23" points="188.78 199.09 190.22 197.4 181.56 197.9 180.4 199.57 188.78 199.09"/><path class="cls-24" d="M172.77,190.45s-5.61-1.29-7.21-1.89-5.28-6.21-5.28-6.21l4.76,7.24Z"/><path class="cls-24" d="M176.27,192.21l5.3,5.69,8.65-.5s-6.62.17-8.11-.33S176.27,192.21,176.27,192.21Z"/><path class="cls-24" d="M205.68,187.25l3.89-7.75s-3.62,6.26-4.7,7S198.1,189,198.1,189Z"/><path class="cls-24" d="M162.34,171l-3.13-7.11,3.9-7.75s-2.47,5.86-2.64,8.05S162.34,171,162.34,171Z"/><path class="cls-25" d="M281.6,221.79l6.84-1.14L289.51,206l-6.6-2.13-3.82-11.55,4-5.65-9.57-11.09-6.18,3.17-10.87-5.47-1.14-6.84-14.61-1.07-2.12,6.6-11.56,3.83-6.37-4.55-10.77,9.29,3.58,7L208,198.42l-6.84,1.14-1.07,14.61,6.6,2.13,3.82,11.55-4,5.65,9.57,11.08,6.18-3.16,10.87,5.46,1.14,6.85,14.61,1.07,2.12-6.61,11.56-3.82,5.64,4,11.09-9.57-3.17-6.17ZM233.36,232.1a24.8,24.8,0,1,1,33.3-11A24.8,24.8,0,0,1,233.36,232.1Z"/><path class="cls-26" d="M286.56,216.69l7.23-1.21,1.13-15.42-7-2.24-4-12.2,4.26-6L278.06,168l-6.52,3.35-11.48-5.77-1.2-7.23-15.42-1.13-2.25,7-12.2,4-6.72-4.81-11.37,9.82,3.77,7.35L208.9,192l-7.22,1.2-1.13,15.42,7,2.24,4,12.2-4.26,6,10.1,11.71,6.52-3.35,11.48,5.78,1.2,7.22L252,251.54l2.24-7,12.2-4,6,4.26,11.7-10.1-3.34-6.52Zm-50.93,10.89A26.18,26.18,0,1,1,270.79,216,26.19,26.19,0,0,1,235.63,227.58Z"/><polygon class="cls-27" points="288.44 220.65 293.79 215.49 286.56 216.69 284.22 221.35 288.44 220.65"/><polygon class="cls-28" points="252.03 251.54 248.89 254.8 234.28 253.73 236.6 250.41 252.03 251.54"/><polygon class="cls-28" points="217.4 240.76 216.09 244.59 206.52 233.5 207.3 229.06 217.4 240.76"/><polygon class="cls-27" points="233.14 246.88 235.4 243.19 236.6 250.41 234.28 253.73 233.14 246.88"/><polygon class="cls-27" points="206.73 216.3 207.52 210.9 200.55 208.65 200.13 214.17 206.73 216.3"/><polygon class="cls-27" points="212.32 185.23 214.67 180.54 210.9 173.19 209.93 180.58 212.32 185.23"/><polygon class="cls-29" points="262.57 244.37 266.47 240.53 272.43 244.79 268.21 248.41 262.57 244.37"/><path class="cls-30" d="M268,201.87l4.66-4.71s2.32,6.58-.71,16.25l-3.41,2.85A23.14,23.14,0,0,0,268,201.87Z"/><path class="cls-30" d="M233.83,187.55l1.91-6.81s-12.48,5.77-14.33,20.14C225.4,189.56,233.83,187.55,233.83,187.55Z"/><path class="cls-24" d="M235.4,243.19s1,5.22,2.68,6S252,251.54,252,251.54l-15.43-1.13Z"/><path class="cls-24" d="M223.92,237.41l-6.52,3.35-10.1-11.71s8.32,9,10.35,9.77S223.92,237.41,223.92,237.41Z"/><path class="cls-24" d="M201.68,193.23l-1.13,15.42,7,2.24s-4.94-1.5-5.88-2.95S201.68,193.23,201.68,193.23Z"/><path class="cls-24" d="M266.47,240.53l6,4.26,11.7-10.1s-9.66,9.07-11.78,8.8S266.47,240.53,266.47,240.53Z"/><polygon class="cls-31" points="418.54 312.09 419.9 299.65 433.01 299.65 431.11 312.09 418.54 312.09"/><path class="cls-32" d="M390.12,446.77h80.35A17.33,17.33,0,0,0,487.8,430l3.86-99.6a17.34,17.34,0,0,0-17.33-17.91H386.24Z"/><path class="cls-33" d="M388.88,446.38h80.34a17.35,17.35,0,0,0,17.34-16.78l3.86-99.6a17.35,17.35,0,0,0-17.34-17.91H385Z"/><path class="cls-34" d="M388.75,444.12h77.63a16.77,16.77,0,0,0,16.76-16.22l3.72-96.24a16.76,16.76,0,0,0-16.75-17.31H385Z"/><path class="cls-35" d="M483,429.32l-6.1-.05,3.1-101s-1.1-6.12-5.45-9.94l-8.19,125.79S480.3,444.4,483,429.32Z"/><path class="cls-36" d="M377.37,446.77h80.35A17.33,17.33,0,0,0,475.05,430l3.86-99.6a17.34,17.34,0,0,0-17.33-17.91H373.49Z"/><path class="cls-37" d="M376.13,446.38h80.34a17.35,17.35,0,0,0,17.34-16.78l3.86-99.6a17.35,17.35,0,0,0-17.34-17.91H372.24Z"/><path class="cls-38" d="M451.81,312.09,450,446.38s9.05.39,13.3.39l-.43.86H439V310.25s14.2,1.45,20.57.82l.81,1Z"/><path class="cls-35" d="M451.12,311.13l-2.34,136.5h14.08l.43-.86-12.17-.39,1.39-134.29h7.82l-.81-1S454.24,311.29,451.12,311.13Z"/><polygon class="cls-39" points="393.05 312.09 391.12 302.78 406.24 302.78 408.89 312.09 393.05 312.09"/><text class="cls-40" transform="translate(383.41 437.72)">LOGAN</text><path class="cls-41" d="M389.82,178.33,259.27,267.94a4.64,4.64,0,0,0-1.09,6.56l22.72,31a4.64,4.64,0,0,0,6.27,1.15l129.6-84.45a4.64,4.64,0,0,0,1.44-6.28l-21.77-36.2A4.64,4.64,0,0,0,389.82,178.33ZM267.2,275a2.81,2.81,0,1,1,.82-3.89A2.81,2.81,0,0,1,267.2,275Z"/><path class="cls-42" d="M389.53,178,259,267.58a4.64,4.64,0,0,0-1.09,6.56l22.72,31a4.64,4.64,0,0,0,6.28,1.14l129.59-84.45a4.63,4.63,0,0,0,1.44-6.27l-21.77-36.21A4.64,4.64,0,0,0,389.53,178ZM266.91,274.59a2.8,2.8,0,1,1,.82-3.88A2.8,2.8,0,0,1,266.91,274.59Z"/><polygon class="cls-43" points="309.71 285.88 293.44 296.48 271.47 265.36 287.74 254.23 309.71 285.88"/><polygon class="cls-44" points="328.7 273.5 312 284.38 290.04 252.65 306.75 241.22 328.7 273.5"/><polygon class="cls-45" points="348.2 260.8 331.05 271.97 309.1 239.61 326.27 227.86 348.2 260.8"/><polygon class="cls-46" points="368.23 247.75 350.61 259.23 328.69 226.2 346.33 214.13 368.23 247.75"/><polygon class="cls-47" points="388.82 234.33 370.71 246.13 348.82 212.43 366.96 200.01 388.82 234.33"/><polygon class="cls-48" points="409.98 220.54 391.37 232.67 369.51 198.26 388.18 185.49 409.98 220.54"/><path class="cls-49" d="M368.54,154.4,259.35,269.08a4.65,4.65,0,0,0,.29,6.64l28.65,25.67a4.65,4.65,0,0,0,6.38-.18L404,191.77a4.65,4.65,0,0,0,.11-6.44l-28.79-30.92A4.63,4.63,0,0,0,368.54,154.4Zm-100,119.9a2.81,2.81,0,1,1,0-4A2.81,2.81,0,0,1,268.56,274.3Z"/><path class="cls-50" d="M368.19,154.11,259,268.79a4.65,4.65,0,0,0,.29,6.65l28.65,25.66a4.65,4.65,0,0,0,6.38-.18L403.63,191.48a4.64,4.64,0,0,0,.11-6.44L375,154.13A4.63,4.63,0,0,0,368.19,154.11ZM268.21,274a2.81,2.81,0,1,1,0-4A2.81,2.81,0,0,1,268.21,274Z"/><polygon class="cls-51" points="312.41 276.2 298.7 289.93 270.76 264.03 284.37 249.77 312.41 276.2"/><polygon class="cls-52" points="328.44 260.16 314.35 274.26 286.3 247.76 300.28 233.11 328.44 260.16"/><polygon class="cls-53" points="344.88 243.69 330.42 258.17 302.25 231.05 316.61 216 344.88 243.69"/><polygon class="cls-54" points="361.78 226.78 346.92 241.66 318.63 213.88 333.4 198.42 361.78 226.78"/><polygon class="cls-55" points="379.14 209.39 363.87 224.68 335.48 196.24 350.66 180.34 379.14 209.39"/><polygon class="cls-56" points="397 191.52 381.3 207.24 352.8 178.1 368.41 161.74 397 191.52"/><path class="cls-57" d="M342.82,135.88,258.3,269.78a4.64,4.64,0,0,0,1.59,6.46L293,295.77a4.64,4.64,0,0,0,6.22-1.43l85.68-128.78a4.65,4.65,0,0,0-1.16-6.34l-34.29-24.65A4.64,4.64,0,0,0,342.82,135.88ZM268.35,273.09a2.81,2.81,0,1,1-.78-3.89A2.81,2.81,0,0,1,268.35,273.09Z"/><path class="cls-58" d="M342.14,135.18l-84.52,133.9a4.64,4.64,0,0,0,1.59,6.46l33.13,19.53a4.64,4.64,0,0,0,6.22-1.43l85.68-128.78a4.65,4.65,0,0,0-1.15-6.34l-34.3-24.65A4.64,4.64,0,0,0,342.14,135.18ZM267.67,272.39a2.81,2.81,0,1,1-.78-3.89A2.81,2.81,0,0,1,267.67,272.39Z"/><path class="cls-59" d="M341.74,135l-84.53,133.9a4.66,4.66,0,0,0,1.59,6.46l33.14,19.53a4.63,4.63,0,0,0,6.21-1.43l85.69-128.78a4.65,4.65,0,0,0-1.16-6.34l-34.3-24.65A4.63,4.63,0,0,0,341.74,135Zm-74.48,137.2a2.8,2.8,0,1,1-.78-3.89A2.8,2.8,0,0,1,267.26,272.17Z"/><polygon class="cls-60" points="311.04 265.64 300.29 281.8 267.81 261.89 278.36 245.23 311.04 265.64"/><polygon class="cls-61" points="323.6 246.76 312.56 263.35 279.85 242.88 290.68 225.77 323.6 246.76"/><polygon class="cls-62" points="336.49 227.38 325.15 244.43 292.2 223.37 303.33 205.79 336.49 227.38"/><polygon class="cls-63" points="349.74 207.48 338.09 224.99 304.9 203.31 316.33 185.25 349.74 207.48"/><polygon class="cls-64" points="363.35 187.02 351.38 205.01 317.95 182.71 329.71 164.13 363.35 187.02"/><polygon class="cls-65" points="377.34 165.99 365.03 184.49 331.36 161.51 343.46 142.4 377.34 165.99"/><path class="cls-57" d="M327.89,129.13,258.67,271.57a4.65,4.65,0,0,0,2.27,6.25l34.29,15.56a4.64,4.64,0,0,0,6-2.08l71.62-137.1a4.65,4.65,0,0,0-1.82-6.18l-36.71-20.9A4.64,4.64,0,0,0,327.89,129.13ZM269,273.8a2.8,2.8,0,1,1-1.19-3.79A2.81,2.81,0,0,1,269,273.8Z"/><path class="cls-66" d="M327.21,128.77,258,271.21a4.65,4.65,0,0,0,2.26,6.26L294.55,293a4.63,4.63,0,0,0,6-2.08l71.62-137.1a4.65,4.65,0,0,0-1.82-6.18l-36.71-20.9A4.64,4.64,0,0,0,327.21,128.77ZM268.33,273.44a2.8,2.8,0,1,1-1.18-3.79A2.8,2.8,0,0,1,268.33,273.44Z"/><path class="cls-67" d="M326.81,128.56,257.59,271a4.66,4.66,0,0,0,2.27,6.26l34.29,15.56a4.65,4.65,0,0,0,6-2.08l71.62-137.1a4.65,4.65,0,0,0-1.82-6.18l-36.71-20.9A4.64,4.64,0,0,0,326.81,128.56ZM267.94,273.23a2.8,2.8,0,1,1-1.19-3.78A2.81,2.81,0,0,1,267.94,273.23Z"/><path class="cls-68" d="M261.17,269.69a4.84,4.84,0,1,0,6.53-2.05A4.84,4.84,0,0,0,261.17,269.69Zm6.48,3.39a2.48,2.48,0,1,1-1-3.34A2.49,2.49,0,0,1,267.65,273.08Z"/><path class="cls-69" d="M263,270.63a2.81,2.81,0,1,0,3.79-1.19A2.81,2.81,0,0,0,263,270.63Zm4.68,2.45a2.48,2.48,0,1,1-1-3.34A2.49,2.49,0,0,1,267.65,273.08Z"/><path class="cls-6" d="M375.66,433.05l32.59-8s6.05-2.54,7.19-7.41l1.14-22.63-41.41,2.76Z"/><ellipse class="cls-70" cx="280.75" cy="449.21" rx="210.9" ry="7.33"/><ellipse class="cls-71" cx="280.75" cy="449.21" rx="118.94" ry="4.14"/><path class="cls-72" d="M317.71,439.67H238.2l6.57-29.62L245,409h9.91a20.64,20.64,0,0,0,.84,2.91c1.9,5.31,7.61,15.9,22.74,15.9,9.79,0,15.26-4.44,18.29-9a23.85,23.85,0,0,0,3.71-9.8h10.42l2.8,12.64Z"/><path class="cls-73" d="M214.19,439.67s-1.85,3.15,1.85,6H337.38s4.39-2.48,3.47-6Z"/><path class="cls-74" d="M254.91,409a20.64,20.64,0,0,0,.84,2.91l-11-1.84-.14,0,.37-1Z"/><path class="cls-74" d="M313.71,421.62l-16.93-2.84a23.85,23.85,0,0,0,3.71-9.8h10.42Z"/><path class="cls-75" d="M136.08,394.37,154,252.82a13,13,0,0,1,12.88-11.36H391.2A13,13,0,0,1,404.1,253l15.84,141.55A13,13,0,0,1,407,409H149A13,13,0,0,1,136.08,394.37Z"/><path class="cls-76" d="M135.6,393.48l18.8-148.27a9.63,9.63,0,0,1,9.55-8.42H394.2a9.64,9.64,0,0,1,9.57,8.56l16.59,148.27a9.62,9.62,0,0,1-9.56,10.69H145.15A9.62,9.62,0,0,1,135.6,393.48Z"/><path class="cls-77" d="M260.28,236.79l152.58,89.8-9.09-81.24s-.72-8.56-9.57-8.56Z"/><polygon class="cls-78" points="158.91 251.97 395.19 247.29 413.6 386.59 142.22 386.59 158.91 251.97"/><polygon class="cls-79" points="162.29 386.59 175.44 263.01 381.85 263.01 394.68 386.59 162.29 386.59"/><polygon class="cls-80" points="143.56 386.59 160.34 253.24 394.68 248.28 412.11 386.59 413.6 386.59 395.19 247.29 158.91 251.97 142.22 386.59 143.56 386.59"/><polygon class="cls-81" points="398.31 395.58 398.31 397.81 407.37 397.81 407.37 395.05 398.31 395.58"/><polygon class="cls-82" points="398.31 395.58 404.31 395.29 404.31 397.81 398.31 397.81 398.31 395.58"/><path class="cls-83" d="M372.24,318.39c-27.75,0-37.66-47-68.47-44.84S270,318.39,256.14,318.39,242,294.83,223.05,295.93s-26.43,22.46-26.43,22.46Z"/><path class="cls-84" d="M259.9,318.39H372.24S376.19,286,351.69,280s-33.89,21.35-43.77,23.22-11.74-5.13-23.49-4.43S271.89,313.58,264.68,316s-9.61-4.5-18.15-2.91-11.47,5.32-11.47,5.32Z"/><polygon class="cls-85" points="178.8 266.19 178.32 269.23 204.82 269.23 205.36 266.19 178.8 266.19"/><polygon class="cls-86" points="252.33 266.19 251.85 269.23 262.67 269.23 263.2 266.19 252.33 266.19"/><polygon class="cls-86" points="272.69 266.19 272.21 269.23 283.02 269.23 283.56 266.19 272.69 266.19"/><polygon class="cls-86" points="293.05 266.19 292.57 269.23 303.38 269.23 303.92 266.19 293.05 266.19"/><polygon class="cls-86" points="313.4 266.19 312.92 269.23 323.74 269.23 324.27 266.19 313.4 266.19"/><polygon class="cls-86" points="361.61 266.19 361.13 269.23 371.95 269.23 372.48 266.19 361.61 266.19"/><polygon class="cls-87" points="175.43 325.23 380.99 322.37 382.52 338.57 174.3 338.52 175.43 325.23"/><polygon class="cls-88" points="232.61 383.22 198.72 383.22 203.44 341.55 235.29 341.55 232.61 383.22"/><path class="cls-79" d="M209.9,352.81l-1.47,14.48h17.3l1.1-14.48Zm13,11.94H211.66l.93-9.48h11.12Z"/><polygon class="cls-79" points="212.79 363.89 222.22 363.89 219.68 358.76 217.29 360.74 216.55 360.2 212.79 363.89"/><path class="cls-79" d="M217.69,358.29a1.78,1.78,0,0,1-1.76,1.57,1.43,1.43,0,0,1-1.48-1.57,1.78,1.78,0,0,1,1.76-1.56A1.43,1.43,0,0,1,217.69,358.29Z"/><polygon class="cls-89" points="273.73 383.22 239.84 383.22 242.09 341.55 273.95 341.55 273.73 383.22"/><path class="cls-79" d="M249.22,352.81l-.61,14.48h17.3l.25-14.48ZM263,364.75H251.69l.36-9.48h11.13Z"/><polygon class="cls-79" points="252.77 363.89 262.2 363.89 259.35 358.76 257.08 360.74 256.31 360.2 252.77 363.89"/><path class="cls-79" d="M257.34,358.29a1.66,1.66,0,0,1-1.67,1.57,1.54,1.54,0,0,1-1.58-1.57,1.66,1.66,0,0,1,1.68-1.56A1.54,1.54,0,0,1,257.34,358.29Z"/><polygon class="cls-90" points="314.86 383.22 280.97 383.22 280.75 341.55 312.6 341.55 314.86 383.22"/><path class="cls-79" d="M288.54,352.81l.25,14.48h17.3l-.61-14.48ZM303,364.75H291.72l-.2-9.48h11.13Z"/><polygon class="cls-79" points="292.75 363.89 302.18 363.89 299.02 358.76 296.88 360.74 296.07 360.2 292.75 363.89"/><path class="cls-79" d="M297,358.29a1.54,1.54,0,0,1-1.58,1.57,1.65,1.65,0,0,1-1.66-1.57,1.55,1.55,0,0,1,1.58-1.56A1.64,1.64,0,0,1,297,358.29Z"/><polygon class="cls-91" points="355.98 383.22 322.09 383.22 319.4 341.55 351.26 341.55 355.98 383.22"/><path class="cls-79" d="M327.87,352.81l1.1,14.48h17.3l-1.47-14.48ZM343,364.75H331.75l-.76-9.48h11.12Z"/><polygon class="cls-79" points="332.73 363.89 342.16 363.89 338.7 358.76 336.67 360.74 335.83 360.2 332.73 363.89"/><path class="cls-79" d="M336.63,358.29a1.44,1.44,0,0,1-1.49,1.57,1.77,1.77,0,0,1-1.75-1.57,1.44,1.44,0,0,1,1.49-1.56A1.77,1.77,0,0,1,336.63,358.29Z"/><circle class="cls-92" cx="257.34" cy="295.93" r="8.82"/><circle class="cls-93" cx="238.38" cy="294.03" r="4.7"/><path class="cls-94" d="M196.54,311.25a2.9,2.9,0,1,1-2.9-2.9A2.9,2.9,0,0,1,196.54,311.25Z"/><polygon class="cls-95" points="162.54 386.62 162.04 386.57 175.22 262.76 382.07 262.76 382.1 262.98 394.93 386.57 394.43 386.62 381.62 263.26 175.67 263.26 162.54 386.62"/><polygon class="cls-77" points="292.57 251.08 402.09 311.3 394.68 248.28 292.57 251.08"/><path class="cls-96" d="M300.49,409H254.91v0Z"/><polygon class="cls-97" points="274.86 319.43 276.5 367.47 390.6 367.47 384.08 318.43 274.86 319.43"/><polygon class="cls-79" points="283.56 304.75 284.93 355.27 400.15 355.27 394.4 304.75 283.56 304.75"/><polygon class="cls-98" points="283.79 313.12 395.35 313.12 394.4 304.75 283.56 304.75 283.79 313.12"/><path class="cls-95" d="M400.43,355.52H284.68v-.24L283.3,304.5H394.62l0,.22ZM285.17,355h114.7l-5.69-50H283.81Z"/><polygon class="cls-99" points="316.25 329.56 305.21 329.56 304.45 318.43 315.5 318.43 316.25 329.56"/><polygon class="cls-100" points="329.17 329.56 318.13 329.56 317.38 318.43 328.42 318.43 329.17 329.56"/><polygon class="cls-101" points="341.92 329.56 330.88 329.56 330.12 318.43 341.17 318.43 341.92 329.56"/><polygon class="cls-102" points="354.67 329.56 343.62 329.56 342.87 318.43 353.91 318.43 354.67 329.56"/><polygon class="cls-103" points="367.41 329.56 356.37 329.56 355.62 318.43 366.66 318.43 367.41 329.56"/><polygon class="cls-104" points="380.16 329.56 369.11 329.56 368.36 318.43 379.4 318.43 380.16 329.56"/><polygon class="cls-105" points="317.17 343.07 306.12 343.07 305.37 331.95 316.41 331.95 317.17 343.07"/><polygon class="cls-106" points="330.09 343.07 319.04 343.07 318.29 331.95 329.33 331.95 330.09 343.07"/><polygon class="cls-107" points="342.83 343.07 331.79 343.07 331.04 331.95 342.08 331.95 342.83 343.07"/><polygon class="cls-108" points="355.58 343.07 344.54 343.07 343.78 331.95 354.83 331.95 355.58 343.07"/><polygon class="cls-109" points="368.33 343.07 357.28 343.07 356.53 331.95 367.57 331.95 368.33 343.07"/><polygon class="cls-110" points="381.07 343.07 370.03 343.07 369.28 331.95 380.32 331.95 381.07 343.07"/><polygon class="cls-111" points="384.48 305.8 385.12 312.07 394.12 312.07 393.4 305.8 384.48 305.8"/><path class="cls-77" d="M255.75,415.3s6.53,13.34,21.6,13.34a25.36,25.36,0,0,0,21.58-11.19s-6.79,12.36-21.59,12.36C261.88,429.81,255.75,415.3,255.75,415.3Z"/><path class="cls-79" d="M283.18,428a24,24,0,0,0,8.55-3.51S288.53,428.89,283.18,428Z"/><rect class="cls-112" x="389.01" y="306.05" width="1" height="5.78" transform="translate(-99.25 399.88) rotate(-48.96)"/><rect class="cls-112" x="386.76" y="308.44" width="5.37" height="1" transform="translate(-104.38 365.86) rotate(-45)"/><path class="cls-113" d="M130.24,356.08c-.35,1.61-.76,3.09-1.2,4.47h0c-5.19,16.4-15.34,17.94-20.71,45.26H77c-5.47-27.9-15.95-28.91-21-46.33-.32-1.07-.61-2.21-.87-3.41C50.47,335.27,75,316.9,92.68,316.9S134.88,335.27,130.24,356.08Z"/><g class="cls-114"><path class="cls-115" d="M92.68,317.4c10.63,0,23.35,6.6,30.92,16.05,4,5,8.29,12.92,6.15,22.52-2.06,9.25-5.52,14.25-9.17,19.54-4.42,6.41-9.43,13.67-12.65,29.8H77.43c-3.23-16.13-8.24-23.39-12.66-29.8-3.65-5.29-7.1-10.29-9.17-19.54-2.14-9.6,2.16-17.55,6.15-22.52C69.32,324,82,317.4,92.68,317.4Zm0-.5c-17.71,0-42.21,18.37-37.57,39.18S71.21,376.2,77,405.81h31.32c5.8-29.61,17.25-28.93,21.9-49.73S110.38,316.9,92.68,316.9Z"/></g><path class="cls-116" d="M99.37,362.29s1.12,12.62-6.47,15c-7.59-2.34-6.47-15-6.47-15l-1.68,1c2.68,13.12,3.36,39.94,3.36,39.94h9.58s.68-26.82,3.36-39.94Z"/><path class="cls-117" d="M75.49,399.17c1.37,3.81,27.37,5.52,34.05,1.22l-.78,3.37-32.08.39Z"/><circle class="cls-118" cx="106" cy="339.76" r="17.77" transform="translate(-246.35 389.97) rotate(-80.78)"/><path class="cls-119" d="M73.6,357.17c3.46,8.47,2.66,16.81-1.79,18.63S61,372.22,57.48,363.75s-2.66-16.81,1.79-18.63S70.14,348.7,73.6,357.17Z"/><path class="cls-120" d="M129,360.56c-5.19,16.4-15.34,17.94-20.71,45.26H77c-5.47-27.9-15.95-28.91-21-46.33,5.95,12.68,19.87,17.56,42.57,16.72S129,360.56,129,360.56Z"/><path class="cls-121" d="M73.77,404.68l2.36,22.08s11-2.83,32.55,0l3-21S95.94,400.3,73.77,404.68Z"/><path class="cls-122" d="M76.13,426.76s16.35,4.56,32.55,0C108.68,426.76,89.65,422.67,76.13,426.76Z"/><path class="cls-123" d="M82,426.76l1.57,3.14a42.94,42.94,0,0,0,17.45,0l1.57-3A43.54,43.54,0,0,0,82,426.76Z"/><path class="cls-74" d="M83.6,429.9s9.88-2.41,17.45,0C101.05,429.9,91.91,431.9,83.6,429.9Z"/><path class="cls-124" d="M75.85,424.13l-3-2.72s18-10.06,40-8l-3,4.51S91.5,413.23,75.85,424.13Z"/><path class="cls-125" d="M75,415.87l-2.09-1.69S88,402,114.39,404l-3.12,4.59A47.26,47.26,0,0,0,75,415.87Z"/><path class="cls-126" d="M72.88,414.18,74.55,412s20.76-11.78,39.84-8C114.39,404,93.74,400.66,72.88,414.18Z"/><path class="cls-127" d="M72.88,421.41l2.38-2.76a82.07,82.07,0,0,1,35.41-5.91l2.25.71S92.33,411.43,72.88,421.41Z"/><path class="cls-128" d="M72.88,421.41l3,2.72.28,1.79s5-6.81,17-8.07,16.28,3.56,16.28,3.56l.49-3.45,3-4.51S90.15,412.37,72.88,421.41Z"/><path class="cls-128" d="M72.88,414.18,75,415.87l.29,2.78S79.12,411,92.33,409s18.52,2.43,18.52,2.43l.42-2.9,3.12-4.59A64.5,64.5,0,0,0,72.88,414.18Z"/><path class="cls-129" d="M61.39,212.15c23.44,13.75,68.12,44.29,68.12,44.29l.83-1.35,49.28,30.46-.83,1.34,2.75,1.7,13.67.44,1.1-1.79,1.11-1.79-6.5-12-2.75-1.7-.84,1.35-49.28-30.46.84-1.34S91.59,215,68.81,200.14c0,0-4.42,2.38-5.67,4.79C61.54,207.13,61.39,212.15,61.39,212.15Z"/><path class="cls-130" d="M178.79,286.89l-1.24.44s-26-18.85-48.33-29.87c0,0,2.11-8,10-17.13,0,0,25.84,18.09,49.12,30.35l-.18,1S182.1,283,178.79,286.89Z"/><path class="cls-131" d="M195.51,288.54l2.62,1.62a1.39,1.39,0,0,0,1.86-.6h0a1.38,1.38,0,0,0-.3-1.92L197.07,286Z"/><path class="cls-74" d="M128.72,255.9s2.59-9.44,8.12-15.78l1.68,1s-7.08,7.53-9,15.28Z"/><path class="cls-132" d="M61.67,209.31c.37-1.79,65.08,40.86,66.71,41.83s.68,3.66.68,3.66a68.58,68.58,0,0,1,2.95-7.24s-2,2.46-3.19,2.13S63.9,208.83,63.24,208s-.41-2.6-.41-2.6A15.87,15.87,0,0,0,61.67,209.31Z"/><path class="cls-133" d="M72.76,219.06a28,28,0,0,1,7.32-11.84l-.69-.43A22.74,22.74,0,0,0,72,218.58Z"/><path class="cls-134" d="M181.54,288.59a29.81,29.81,0,0,0,9.38-15.17l6.5,12L195.21,289Z"/><path class="cls-135" d="M174.49,283.69a10.54,10.54,0,0,0,2.54-3L143.62,260l-1.68,2.72S160.78,275,174.49,283.69Z"/><path class="cls-136" d="M175,283.22l-15.6-9.65,0-1.08-1,.47-16.27-10.57,1.46-2.35L177,280.69A7.5,7.5,0,0,1,175,283.22Z"/><polygon class="cls-137" points="143.62 260.04 159.7 270.72 158.43 272.96 159.41 272.49 159.43 273.57 160.83 271.31 177.03 280.69 143.62 260.04"/><path class="cls-138" d="M538,438.59H517l-3.38,10H499.25l20.38-56.34h15.9l20.38,56.34H541.38ZM534.48,428l-7-20.63L520.6,428Z"/><path class="cls-139" d="M528.47,438.12h-22l-3.53,10.42H487.87l21.35-59h16.64l21.35,59H532ZM524.77,427l-7.31-21.61L510.23,427Z"/><polygon class="cls-140" points="525.86 389.54 535.53 392.2 555.91 448.54 547.21 448.54 525.86 389.54"/><path class="cls-141" d="M557.63,413.22a19.89,19.89,0,0,1,7.25-8.2c3.06-1.91.58-4,4.35-4,3.22,0,11.95,1.84,14.39,3.15a14.42,14.42,0,0,1,5.61,5.17v-6.48h14v45.75h-14v-6.48a15.13,15.13,0,0,1-5.7,5.17c-2.43,1.31-13,2-16.22,2-3.72,0,.63-1-2.43-2.91a20.06,20.06,0,0,1-7.25-8.28,30.13,30.13,0,0,1,0-24.8Zm28.69,4.18a9.86,9.86,0,0,0-14.18,0c-1.94,2-2.91,4.74-2.91,8.24a11.6,11.6,0,0,0,2.91,8.32,9.74,9.74,0,0,0,14.18,0q2.91-3,2.91-8.28A11.49,11.49,0,0,0,586.32,417.4Z"/><path class="cls-142" d="M549.45,412.32a20.32,20.32,0,0,1,7.44-8.41A19.44,19.44,0,0,1,567.4,401a18,18,0,0,1,8.7,2,14.82,14.82,0,0,1,5.75,5.29v-6.64h14.38v46.9H581.85V441.9a15.55,15.55,0,0,1-5.84,5.3,18.08,18.08,0,0,1-8.7,2,19.06,19.06,0,0,1-10.42-3,20.61,20.61,0,0,1-7.44-8.49,31,31,0,0,1,0-25.42Zm29.42,4.28a10.1,10.1,0,0,0-14.54,0c-2,2.05-3,4.86-3,8.45a11.91,11.91,0,0,0,3,8.53,10,10,0,0,0,14.54,0q3-3.1,3-8.49T578.87,416.6Z"/><polygon class="cls-143" points="596.23 401.64 603.25 402.81 603.25 448.56 596.23 448.54 596.23 401.64"/><polygon class="cls-144" points="506.45 438.12 515.3 443.56 517.15 438.12 506.45 438.12"/><polygon class="cls-144" points="513.84 416.23 521.57 425.09 522.84 421.31 517.46 405.42 513.84 416.23"/><path class="cls-144" d="M563.05,418.44l6.7,3.15s1.22-5.59,6.74-6.86A10.38,10.38,0,0,0,563.05,418.44Z"/><path class="cls-145" d="M111.56,440.71l9.51,19.14,106.51,2.39s3.7-5.09,3.69-5.49c-.22-8.37-7.22-31.28-39.77-37.73C153.29,411.43,111.56,440.71,111.56,440.71Z"/><path class="cls-146" d="M111.56,440.71c69-28.43,50.71,28.66,119.48,14.34,0,0-2.72-32.47-47.73-36.7C144,414.67,111.56,440.71,111.56,440.71Z"/><path class="cls-74" d="M121.07,459.85c27.77.08,77.09-1,91.73-2.54s18.47-.56,18.47-.56l-3.69,5.49Z"/><path class="cls-147" d="M114.79,446.4s14.22-6.57,35.74-.93,33.24,10.46,34.5,11.77-1.55,2.34-1.55,2.34l25.57-1.9s-6.7,1.16-23.52-4.66-27.91-30.09-74-12.31Z"/><g class="cls-148"><path class="cls-149" d="M213.12,458.13a97.45,97.45,0,0,1-20.22-2.26c-6.66-1.42-11.87-5.41-17.38-9.64-12.57-9.64-26.81-20.57-63.77-5.06l-.39-.92c37.5-15.73,52-4.62,64.76,5.18,5.43,4.16,10.55,8.09,17,9.46,24.35,5.18,37.61-.24,37.74-.3l.39.92C231.14,455.55,224.87,458.13,213.12,458.13Z"/></g><path class="cls-149" d="M117.28,440.55a42.48,42.48,0,0,1,28.35-7.47,48,48,0,0,1,14.48,3.61,59.17,59.17,0,0,1,12.76,7.77,74.57,74.57,0,0,0,12.4,8.2,44.94,44.94,0,0,0,6.91,2.69,56.65,56.65,0,0,0,7.27,1.55,86,86,0,0,0,14.87.67c5-.15,9.93-.61,14.87-1.23-9.84,1.37-19.87,2.22-29.78.89a59.26,59.26,0,0,1-7.33-1.53,44.79,44.79,0,0,1-7-2.68c-4.53-2.15-8.54-5.19-12.51-8.17a60.89,60.89,0,0,0-12.64-7.76,48.15,48.15,0,0,0-14.35-3.67,44.2,44.2,0,0,0-14.76,1.12A40.53,40.53,0,0,0,117.28,440.55Z"/><path class="cls-150" d="M160.83,420.64l6-.75s-13.69-6.42-24.16.47C142.68,420.36,151.94,417.16,160.83,420.64Z"/><g class="cls-148"><path class="cls-149" d="M125.62,433l-.24-.44c23.94-12.79,40-13.55,52.49-12.58l0,.49C165.38,419.53,149.44,420.28,125.62,433Z"/></g><path class="cls-151" d="M133.91,428.46s9.49-16.11,26.92-7.82A127,127,0,0,0,133.91,428.46Z"/><g class="cls-148"><path class="cls-149" d="M148.21,433.28l-.29-.41c.27-.18,26.89-18.56,49.1-12.8l-.13.49C174.91,414.85,148.47,433.1,148.21,433.28Z"/></g><path class="cls-152" d="M181.65,420.94s22.07,1.67,36.95,24.44h2.79s-11.71-21.54-38.27-24.69Z"/><path class="cls-153" d="M145.34,418.88s7.9-3.79,18.44,1.39l1.73-.23S154.92,414.85,145.34,418.88Z"/><ellipse class="cls-154" cx="151.67" cy="428.51" rx="20.7" ry="6.84" transform="translate(-67.32 30.18) rotate(-9.31)"/><path class="cls-155" d="M125.76,437.52l3.48,3.07s16.55-3.39,30.35,3l4.4-2.86S145.87,430.1,125.76,437.52Z"/><g class="cls-148"><rect class="cls-149" x="144.13" y="434.43" width="1" height="5.53" transform="translate(-36.93 14) rotate(-4.92)"/></g></g></g></g></svg>